<svg width="600" height="600" viewBox="0 0 600 600" fill="none" xmlns="http://www.w3.org/2000/svg">
<path d="M220.832 496.37C211.112 491.231 196.864 479.064 182.907 458.713C177.959 451.499 184.818 442.626 193.268 444.889C220.108 452.077 251.143 461.287 246.543 468.077C242.235 474.437 235.521 485.536 231.21 492.774C229.002 496.483 224.648 498.387 220.832 496.37Z" fill="#917800"/>
<path d="M374.168 496.37C383.888 491.231 398.136 479.064 412.093 458.713C417.041 451.499 410.182 442.626 401.732 444.889C374.892 452.077 343.857 461.287 348.457 468.077C352.765 474.437 359.479 485.536 363.79 492.774C365.998 496.483 370.352 498.387 374.168 496.37Z" fill="#917800"/>
<ellipse cx="510" cy="358.5" rx="47" ry="38.5" fill="#DDB900"/>
<ellipse cx="90" cy="370.5" rx="47" ry="38.5" fill="#DDB900"/>
<ellipse cx="299" cy="317" rx="217" ry="163" fill="#FFD700"/>
<ellipse cx="209.5" cy="272" rx="39.5" ry="45" fill="#F7F7F7"/>
<ellipse cx="210.017" cy="271.5" rx="25.0167" ry="28.5" fill="#333333"/>
<ellipse cx="386.5" cy="272" rx="39.5" ry="45" fill="#F7F7F7"/>
<ellipse cx="387.017" cy="271.5" rx="25.0167" ry="28.5" fill="#333333"/>
<path d="M325.5 124.5C326 130.167 322.1 145.5 302.5 161.5C330.5 167.167 385.2 177 380 171C374.8 165 377.833 145.5 380 136.5L406 142.5L411 124.5L307.5 100L302.5 119L325.5 124.5Z" fill="#FFD700"/>
<circle cx="406" cy="279" r="75" stroke="#333333" stroke-width="10"/>
<circle cx="194" cy="279" r="75" stroke="#333333" stroke-width="10"/>
<line x1="269.996" y1="277.5" x2="334.004" y2="277.5" stroke="#333333" stroke-width="10"/>
</svg>
