<svg width="150" height="150" viewBox="0 0 150 150" fill="none" xmlns="http://www.w3.org/2000/svg">
<g id="ai">
<g id="ai_2">
<path id="Vector" d="M26.5625 0H123.438C138.125 0 150 12.1795 150 27.2436V122.756C150 137.821 138.125 150 123.438 150H26.5625C11.875 150 0 137.821 0 122.756V27.2436C0 12.1795 11.875 0 26.5625 0Z" fill="#330000"/>
<path id="Vector_2" d="M72.6876 89.9999H49.4376L44.6876 105.064C44.5626 105.641 44.0626 106.026 43.5001 105.961H31.7501C31.0626 105.961 30.8751 105.577 31.0626 104.808L51.1876 45.3845C51.3751 44.7435 51.5626 44.0384 51.8126 43.2691C52.0626 41.923 52.1876 40.5127 52.1876 39.1025C52.1251 38.782 52.3751 38.4614 52.6876 38.3973C52.7501 38.3973 52.8125 38.3973 52.875 38.3973H68.875C69.375 38.3973 69.6251 38.5896 69.6876 38.9102L92.5001 104.936C92.6876 105.641 92.5001 105.961 91.8751 105.961H78.8125C78.375 106.026 77.9376 105.705 77.8126 105.256L72.6876 89.9999ZM53.0626 76.9871H68.9376C68.5626 75.6409 68.0626 74.0384 67.5001 72.3717C66.9376 70.6409 66.3751 68.782 65.8126 66.8589C65.1876 64.8717 64.6251 62.9486 64.0001 60.9614C63.3751 58.9743 62.8125 57.1153 62.3125 55.2563C61.8125 53.4614 61.3751 51.7948 60.9376 50.2563H60.8126C60.2501 53.0127 59.5626 55.7691 58.6876 58.5255C57.7501 61.6025 56.8126 64.8076 55.8126 68.0127C54.9376 71.282 54.0001 74.2948 53.0626 76.9871Z" fill="#FF9A00"/>
<path id="Vector_3" d="M106.125 49.359C104.063 49.4231 102.063 48.5897 100.563 47.1154C99.1251 45.5128 98.3751 43.3974 98.4376 41.2179C98.3751 39.0385 99.1876 36.9872 100.688 35.5128C102.188 34.0385 104.188 33.2692 106.25 33.2692C108.688 33.2692 110.563 34.0385 111.938 35.5128C113.313 37.0513 114.063 39.1026 114 41.2179C114.063 43.3974 113.313 45.5128 111.813 47.1154C110.375 48.6538 108.25 49.4872 106.125 49.359ZM99.1251 105V55.641C99.1251 55 99.3751 54.7436 99.9376 54.7436H112.313C112.875 54.7436 113.125 55.0641 113.125 55.641V105C113.125 105.705 112.875 106.026 112.313 106.026H100.063C99.4376 106.026 99.1251 105.641 99.1251 105Z" fill="#FF9A00"/>
</g>
</g>
</svg>
