<svg width="150" height="150" viewBox="0 0 150 150" fill="none" xmlns="http://www.w3.org/2000/svg">
<g id="docker">
<g id="docker_2">
<path id="Vector" d="M133.817 64.4646C133.491 64.2065 130.453 61.9153 124.046 61.9153C122.354 61.9227 120.665 62.0676 118.997 62.3487C117.757 53.8597 110.73 49.7209 110.415 49.5352L108.694 48.5443L107.563 50.1751C106.146 52.3658 105.111 54.7807 104.504 57.3173C103.357 62.1631 104.054 66.7145 106.519 70.6056C103.543 72.262 98.7683 72.6698 97.8021 72.7059H18.7563C16.6917 72.7087 15.0163 74.3751 15.005 76.4369C14.9128 83.353 16.0861 90.2278 18.467 96.7228C21.1899 103.855 25.241 109.108 30.5114 112.323C36.4174 115.935 46.0126 118 56.8893 118C61.8029 118.015 66.7072 117.571 71.538 116.673C78.2533 115.442 84.7151 113.098 90.6561 109.738C95.5514 106.906 99.9571 103.305 103.703 99.0708C109.966 91.9906 113.696 84.1052 116.471 77.0974H117.577C124.433 77.0974 128.65 74.3571 130.975 72.0608C132.52 70.5962 133.726 68.8121 134.509 66.8332L135 65.3987L133.817 64.4646Z" fill="#2496ED"/>
<path id="Vector_2" d="M26.0832 70.3941H36.6756C37.1865 70.3941 37.6005 69.9804 37.6005 69.4704V60.0472C37.6033 59.5369 37.1916 59.1211 36.6809 59.1183C36.6792 59.1183 36.6773 59.1183 36.6756 59.1183H26.0832C25.5723 59.1183 25.1583 59.5319 25.1583 60.042V60.0472V69.4702C25.1583 69.9804 25.5723 70.3941 26.0832 70.3941V70.3941Z" fill="#2496ED"/>
<path id="Vector_3" d="M40.6802 70.3941H51.2727C51.7836 70.3941 52.1975 69.9804 52.1975 69.4704V60.0472C52.2004 59.5369 51.7886 59.1211 51.2777 59.1183C51.2761 59.1183 51.2742 59.1183 51.2725 59.1183H40.6801C40.1663 59.1183 39.75 59.5341 39.75 60.0472V69.4702C39.753 69.9813 40.1685 70.3941 40.6802 70.3941" fill="#2496ED"/>
<path id="Vector_4" d="M55.4992 70.3941H66.0917C66.6026 70.3941 67.0166 69.9804 67.0166 69.4704V60.0472C67.0194 59.5369 66.6076 59.1211 66.0967 59.1183C66.0951 59.1183 66.0932 59.1183 66.0915 59.1183H55.4991C54.9882 59.1183 54.5742 59.5319 54.5742 60.042V60.0472V69.4702C54.5744 69.9804 54.9885 70.3941 55.4992 70.3941V70.3941Z" fill="#2496ED"/>
<path id="Vector_5" d="M70.1427 70.3941H80.7352C81.2469 70.3941 81.6624 69.9814 81.6653 69.4704V60.0472C81.6653 59.5341 81.2489 59.1183 80.7352 59.1183H70.1427C69.6319 59.1183 69.2179 59.5319 69.2179 60.042V60.0472V69.4702C69.2179 69.9804 69.632 70.3941 70.1427 70.3941V70.3941Z" fill="#2496ED"/>
<path id="Vector_6" d="M40.6802 56.8375H51.2727C51.7842 56.8346 52.1975 56.4195 52.1975 55.9086V46.4856C52.1975 45.9753 51.7834 45.5619 51.2727 45.5619H40.6802C40.1687 45.5619 39.753 45.9745 39.7501 46.4856V55.9086C39.753 56.4205 40.1676 56.8346 40.6802 56.8375Z" fill="#2496ED"/>
<path id="Vector_7" d="M55.4992 56.8375H66.0917C66.6032 56.8346 67.0165 56.4195 67.0165 55.9086V46.4856C67.0165 45.9753 66.6024 45.5619 66.0917 45.5619H55.4992C54.9883 45.5619 54.5744 45.9755 54.5744 46.4856V55.9086C54.5744 56.4195 54.9877 56.8346 55.4992 56.8375Z" fill="#2496ED"/>
<path id="Vector_8" d="M70.1427 56.8375H80.7352C81.2478 56.8346 81.6624 56.4205 81.6653 55.9086V46.4856C81.6624 45.9745 81.2469 45.5619 80.7352 45.5619H70.1427C69.6319 45.5619 69.2179 45.9755 69.2179 46.4856V55.9086C69.2179 56.4195 69.6312 56.8346 70.1427 56.8375Z" fill="#2496ED"/>
<path id="Vector_9" d="M70.1427 43.2758H80.7352C81.2469 43.2758 81.6624 42.863 81.6653 42.3521V32.9237C81.6624 32.4126 81.2469 32 80.7352 32H70.1427C69.6319 32 69.2179 32.4134 69.2179 32.9237V42.3519C69.2179 42.8622 69.632 43.2758 70.1427 43.2758Z" fill="#2496ED"/>
<path id="Vector_10" d="M84.9154 70.3941H95.5079C96.0196 70.3941 96.4351 69.9814 96.4379 69.4704V60.0472C96.4379 59.5341 96.0216 59.1183 95.5079 59.1183H84.9154C84.4047 59.1183 83.9906 59.5319 83.9906 60.042V60.0472V69.4702C83.9906 69.9804 84.4047 70.3941 84.9154 70.3941" fill="#2496ED"/>
</g>
</g>
</svg>
