<svg width="150" height="150" viewBox="0 0 150 150" fill="none" xmlns="http://www.w3.org/2000/svg">
<g id="java">
<g id="java_2">
<path id="Vector" d="M58.9855 108.35C58.9855 108.35 54.3223 111.061 62.3043 111.978C71.9743 113.081 76.9163 112.923 87.5728 110.906C87.5728 110.906 90.3747 112.663 94.287 114.184C70.3985 124.42 40.222 113.591 58.9855 108.35V108.35ZM56.0663 94.9926C56.0663 94.9926 50.8361 98.8633 58.824 99.6891C69.1538 100.754 77.3113 100.842 91.4272 98.1243C91.4272 98.1243 93.3797 100.103 96.4497 101.185C67.5666 109.629 35.3963 101.851 56.0663 94.9926" fill="#5382A1"/>
<path id="Vector_2" d="M80.6752 72.3348C86.5616 79.1098 79.1287 85.2066 79.1287 85.2066C79.1287 85.2066 94.0746 77.4931 87.2106 67.8336C80.7999 58.8261 75.8835 54.3499 102.498 38.9186C102.498 38.9186 60.7221 49.3496 80.6752 72.3345" fill="#E76F00"/>
<path id="Vector_3" d="M112.27 118.229C112.27 118.229 115.721 121.072 108.469 123.271C94.6806 127.447 51.0786 128.708 38.966 123.437C34.612 121.544 42.7773 118.916 45.3455 118.364C48.0241 117.784 49.555 117.892 49.555 117.892C44.7127 114.482 18.2567 124.588 36.1168 127.482C84.8233 135.379 124.904 123.927 112.27 118.229ZM61.2277 81.1532C61.2277 81.1532 39.0494 86.4199 53.3741 88.332C59.4222 89.1416 71.4794 88.9586 82.7104 88.0176C91.889 87.244 101.105 85.5979 101.105 85.5979C101.105 85.5979 97.869 86.9837 95.5275 88.5821C73.0054 94.504 29.4966 91.7492 42.0222 85.6915C52.6151 80.5725 61.2281 81.1532 61.2281 81.1532H61.2277ZM101.014 103.386C123.909 91.4924 113.323 80.0624 105.935 81.6025C104.123 81.9791 103.316 82.3054 103.316 82.3054C103.316 82.3054 103.989 81.2528 105.272 80.7971C119.889 75.6593 131.131 95.9498 100.554 103.986C100.554 103.986 100.908 103.67 101.014 103.386" fill="#5382A1"/>
<path id="Vector_4" d="M87.2106 14.0004C87.2106 14.0004 99.8903 26.6814 75.1846 46.1802C55.3734 61.8221 70.667 70.7405 75.1764 80.9303C63.6122 70.4993 55.1254 61.3166 60.8192 52.7705C69.1756 40.2247 92.3263 34.1424 87.2106 14" fill="#E76F00"/>
<path id="Vector_5" d="M63.4776 135.616C85.4539 137.023 119.201 134.836 120 124.44C120 124.44 118.464 128.382 101.838 131.511C83.0806 135.04 59.9465 134.628 46.2252 132.366C46.2256 132.366 49.0341 134.691 63.4779 135.616" fill="#5382A1"/>
</g>
</g>
</svg>
