<svg width="150" height="150" viewBox="0 0 150 150" fill="none" xmlns="http://www.w3.org/2000/svg">
<g id="ps">
<g id="ps_2">
<path id="Vector" d="M26.5625 0H123.438C138.125 0 150 12.1795 150 27.2436V122.756C150 137.821 138.125 150 123.438 150H26.5625C11.875 150 0 137.821 0 122.756V27.2436C0 12.1795 11.875 0 26.5625 0Z" fill="#001E36"/>
<path id="Vector_2" d="M33.75 105.192V39.2308C33.75 38.7821 33.9375 38.5257 34.375 38.5257C35.4375 38.5257 36.4375 38.5257 37.875 38.4616C39.375 38.3975 40.9375 38.3975 42.625 38.3334C44.3125 38.2693 46.125 38.2693 48.0625 38.2052C50 38.1411 51.875 38.1411 53.75 38.1411C58.875 38.1411 63.125 38.7821 66.625 40.1282C69.75 41.218 72.625 43.0128 75 45.3846C77 47.4359 78.5625 49.9359 79.5625 52.6923C80.5 55.3846 81 58.1411 81 61.0257C81 66.5385 79.75 71.0898 77.25 74.6795C74.75 78.2693 71.25 80.9616 67.1875 82.5C62.9375 84.1026 58.25 84.6795 53.125 84.6795C51.625 84.6795 50.625 84.6795 50 84.6154C49.375 84.5513 48.5 84.5513 47.3125 84.5513V105.128C47.375 105.577 47.0625 105.962 46.625 106.026C46.5625 106.026 46.5 106.026 46.375 106.026H34.5C34 106.026 33.75 105.769 33.75 105.192ZM47.375 50.8975V72.4359C48.25 72.5 49.0625 72.5641 49.8125 72.5641H53.125C55.5625 72.5641 58 72.1795 60.3125 71.4103C62.3125 70.8334 64.0625 69.6154 65.4375 68.0128C66.75 66.4103 67.375 64.2308 67.375 61.4103C67.4375 59.4231 66.9375 57.4359 65.9375 55.7052C64.875 54.0385 63.375 52.7564 61.5625 52.0513C59.25 51.0898 56.75 50.7052 54.1875 50.7693C52.5625 50.7693 51.125 50.7693 49.9375 50.8334C48.6875 50.7693 47.8125 50.8334 47.375 50.8975Z" fill="#31A8FF"/>
<path id="Vector_3" d="M120 68.5257C118.125 67.5001 116.125 66.7949 114 66.3462C111.687 65.8334 109.375 65.5129 107 65.5129C105.75 65.4488 104.437 65.6411 103.25 65.9616C102.437 66.1539 101.75 66.6026 101.312 67.2436C101 67.7565 100.812 68.3975 100.812 68.9744C100.812 69.5513 101.062 70.1283 101.437 70.6411C102 71.3462 102.75 71.9231 103.562 72.3718C105 73.1411 106.5 73.8462 108 74.4872C111.375 75.6411 114.625 77.2436 117.625 79.1667C119.687 80.5129 121.375 82.3077 122.562 84.4872C123.562 86.5385 124.062 88.7821 124 91.0898C124.062 94.1026 123.187 97.1154 121.562 99.6154C119.812 102.18 117.375 104.167 114.562 105.321C111.5 106.667 107.75 107.372 103.25 107.372C100.375 107.372 97.5625 107.115 94.75 106.539C92.5625 106.154 90.375 105.449 88.375 104.487C87.9375 104.231 87.625 103.782 87.6875 103.269V92.1154C87.6875 91.9231 87.75 91.6667 87.9375 91.5385C88.125 91.4103 88.3125 91.4744 88.5 91.6026C90.9375 93.077 93.5 94.1026 96.25 94.7436C98.625 95.3847 101.125 95.7052 103.625 95.7052C106 95.7052 107.687 95.3847 108.812 94.8077C109.812 94.359 110.5 93.2693 110.5 92.1154C110.5 91.218 110 90.3847 109 89.5513C108 88.718 105.937 87.7565 102.875 86.5385C99.6875 85.3847 96.75 83.8462 94 81.9231C92.0625 80.5129 90.4375 78.6539 89.25 76.4744C88.25 74.4231 87.75 72.1795 87.8125 69.9359C87.8125 67.1795 88.5625 64.5513 89.9375 62.1795C91.5 59.6154 93.8125 57.5642 96.5 56.2821C99.4375 54.7436 103.125 54.0385 107.562 54.0385C110.125 54.0385 112.75 54.2308 115.312 54.6154C117.187 54.8718 119 55.3847 120.687 56.0898C120.937 56.1539 121.187 56.4103 121.312 56.6667C121.375 56.9231 121.437 57.1795 121.437 57.4359V67.8847C121.437 68.1411 121.312 68.3975 121.125 68.5257C120.562 68.6539 120.25 68.6539 120 68.5257Z" fill="#31A8FF"/>
</g>
</g>
</svg>
