<svg width="150" height="150" viewBox="0 0 150 150" fill="none" xmlns="http://www.w3.org/2000/svg">
<g id="supabase">
<g id="supabase_2">
<path id="Vector" d="M87.6572 147.508C83.7212 152.334 75.7406 149.69 75.6458 143.528L74.259 53.4048H136.502C147.776 53.4048 154.064 66.0822 147.053 74.6784L87.6572 147.508Z" fill="url(#paint0_linear_1902_12)"/>
<path id="Vector_2" d="M87.6572 147.508C83.7212 152.334 75.7406 149.69 75.6458 143.528L74.259 53.4048H136.502C147.776 53.4048 154.064 66.0822 147.053 74.6784L87.6572 147.508Z" fill="url(#paint1_linear_1902_12)" fill-opacity="0.2"/>
<path id="Vector_3" d="M62.3432 2.49237C66.2791 -2.33384 74.2599 0.310575 74.3547 6.47241L74.9624 96.5953H13.4982C2.22398 96.5953 -4.06388 83.9179 2.94679 75.3217L62.3432 2.49237Z" fill="#3ECF8E"/>
</g>
</g>
<defs>
<linearGradient id="paint0_linear_1902_12" x1="74.259" y1="73.3873" x2="129.127" y2="97.0234" gradientUnits="userSpaceOnUse">
<stop stop-color="#249361"/>
<stop offset="1" stop-color="#3ECF8E"/>
</linearGradient>
<linearGradient id="paint1_linear_1902_12" x1="49.7332" y1="40.6944" x2="73.9239" y2="87.4679" gradientUnits="userSpaceOnUse">
<stop/>
<stop offset="1" stop-opacity="0"/>
</linearGradient>
</defs>
</svg>
